<svg width="156" height="50" viewBox="0 0 156 50" fill="none" xmlns="http://www.w3.org/2000/svg">
<path d="M26.242 3L31.9615 8.97758L5.71944 34.2L0 28.2224L26.242 3Z" fill="#312E81"/>
<path d="M31.4806 18.6L37.2 24.5776L10.958 49.8L5.23852 43.8224L31.4806 18.6Z" fill="#312E81"/>
<path d="M52.032 6.768V14.416C52.032 15.6 51.696 16.512 51.024 17.152C50.3627 17.792 49.4667 18.112 48.336 18.112C47.152 18.112 46.2027 17.776 45.488 17.104C44.7733 16.432 44.416 15.4773 44.416 14.24H47.136C47.136 14.7093 47.232 15.0667 47.424 15.312C47.616 15.5467 47.8933 15.664 48.256 15.664C48.5867 15.664 48.8427 15.5573 49.024 15.344C49.2053 15.1307 49.296 14.8213 49.296 14.416V6.768H52.032ZM55.618 8.144C55.138 8.144 54.7433 8.00533 54.434 7.728C54.1353 7.44 53.986 7.088 53.986 6.672C53.986 6.24533 54.1353 5.89333 54.434 5.616C54.7433 5.328 55.138 5.184 55.618 5.184C56.0873 5.184 56.4713 5.328 56.77 5.616C57.0793 5.89333 57.234 6.24533 57.234 6.672C57.234 7.088 57.0793 7.44 56.77 7.728C56.4713 8.00533 56.0873 8.144 55.618 8.144ZM56.978 9.072V18H54.242V9.072H56.978ZM70.3528 8.976C71.4621 8.976 72.3421 9.312 72.9928 9.984C73.6541 10.656 73.9848 11.5893 73.9848 12.784V18H71.2648V13.152C71.2648 12.576 71.1101 12.1333 70.8008 11.824C70.5021 11.504 70.0861 11.344 69.5528 11.344C69.0194 11.344 68.5981 11.504 68.2888 11.824C67.9901 12.1333 67.8408 12.576 67.8408 13.152V18H65.1208V13.152C65.1208 12.576 64.9661 12.1333 64.6568 11.824C64.3581 11.504 63.9421 11.344 63.4088 11.344C62.8754 11.344 62.4541 11.504 62.1448 11.824C61.8461 12.1333 61.6968 12.576 61.6968 13.152V18H58.9608V9.072H61.6968V10.192C61.9741 9.81867 62.3368 9.52533 62.7848 9.312C63.2328 9.088 63.7394 8.976 64.3048 8.976C64.9768 8.976 65.5741 9.12 66.0968 9.408C66.6301 9.696 67.0461 10.1067 67.3448 10.64C67.6541 10.1493 68.0754 9.74933 68.6088 9.44C69.1421 9.13067 69.7234 8.976 70.3528 8.976ZM87.2903 8.976C88.3996 8.976 89.2796 9.312 89.9303 9.984C90.5916 10.656 90.9223 11.5893 90.9223 12.784V18H88.2023V13.152C88.2023 12.576 88.0476 12.1333 87.7383 11.824C87.4396 11.504 87.0236 11.344 86.4903 11.344C85.9569 11.344 85.5356 11.504 85.2263 11.824C84.9276 12.1333 84.7783 12.576 84.7783 13.152V18H82.0583V13.152C82.0583 12.576 81.9036 12.1333 81.5943 11.824C81.2956 11.504 80.8796 11.344 80.3463 11.344C79.8129 11.344 79.3916 11.504 79.0823 11.824C78.7836 12.1333 78.6343 12.576 78.6343 13.152V18H75.8983V9.072H78.6343V10.192C78.9116 9.81867 79.2743 9.52533 79.7223 9.312C80.1703 9.088 80.6769 8.976 81.2423 8.976C81.9143 8.976 82.5116 9.12 83.0343 9.408C83.5676 9.696 83.9836 10.1067 84.2823 10.64C84.5916 10.1493 85.0129 9.74933 85.5463 9.44C86.0796 9.13067 86.6609 8.976 87.2903 8.976ZM101.956 9.072L96.3558 22.24H93.4118L95.4598 17.696L91.8277 9.072H94.8838L96.9478 14.656L98.9958 9.072H101.956Z" fill="#FDAD57"/>
<path d="M44.528 36.368C44.528 35.2587 44.768 34.272 45.248 33.408C45.728 32.5333 46.3947 31.856 47.248 31.376C48.112 30.8853 49.088 30.64 50.176 30.64C51.5093 30.64 52.6507 30.992 53.6 31.696C54.5493 32.4 55.184 33.36 55.504 34.576H52.496C52.272 34.1067 51.952 33.7493 51.536 33.504C51.1307 33.2587 50.6667 33.136 50.144 33.136C49.3013 33.136 48.6187 33.4293 48.096 34.016C47.5733 34.6027 47.312 35.3867 47.312 36.368C47.312 37.3493 47.5733 38.1333 48.096 38.72C48.6187 39.3067 49.3013 39.6 50.144 39.6C50.6667 39.6 51.1307 39.4773 51.536 39.232C51.952 38.9867 52.272 38.6293 52.496 38.16H55.504C55.184 39.376 54.5493 40.336 53.6 41.04C52.6507 41.7333 51.5093 42.08 50.176 42.08C49.088 42.08 48.112 41.84 47.248 41.36C46.3947 40.8693 45.728 40.192 45.248 39.328C44.768 38.464 44.528 37.4773 44.528 36.368ZM62.6675 32.976C63.6915 32.976 64.5128 33.3173 65.1315 34C65.7502 34.672 66.0595 35.6 66.0595 36.784V42H63.3395V37.152C63.3395 36.5547 63.1848 36.0907 62.8755 35.76C62.5662 35.4293 62.1502 35.264 61.6275 35.264C61.1048 35.264 60.6888 35.4293 60.3795 35.76C60.0702 36.0907 59.9155 36.5547 59.9155 37.152V42H57.1795V30.16H59.9155V34.272C60.1928 33.8773 60.5715 33.5627 61.0515 33.328C61.5315 33.0933 62.0702 32.976 62.6675 32.976ZM67.4168 37.52C67.4168 36.6027 67.5874 35.7973 67.9288 35.104C68.2808 34.4107 68.7554 33.8773 69.3528 33.504C69.9501 33.1307 70.6168 32.944 71.3528 32.944C71.9821 32.944 72.5314 33.072 73.0008 33.328C73.4808 33.584 73.8488 33.92 74.1048 34.336V33.072H76.8408V42H74.1048V40.736C73.8381 41.152 73.4648 41.488 72.9848 41.744C72.5154 42 71.9661 42.128 71.3368 42.128C70.6114 42.128 69.9501 41.9413 69.3528 41.568C68.7554 41.184 68.2808 40.6453 67.9288 39.952C67.5874 39.248 67.4168 38.4373 67.4168 37.52ZM74.1048 37.536C74.1048 36.8533 73.9128 36.3147 73.5288 35.92C73.1554 35.5253 72.6968 35.328 72.1528 35.328C71.6088 35.328 71.1448 35.5253 70.7608 35.92C70.3874 36.304 70.2008 36.8373 70.2008 37.52C70.2008 38.2027 70.3874 38.7467 70.7608 39.152C71.1448 39.5467 71.6088 39.744 72.1528 39.744C72.6968 39.744 73.1554 39.5467 73.5288 39.152C73.9128 38.7573 74.1048 38.2187 74.1048 37.536ZM80.1961 32.144C79.7161 32.144 79.3215 32.0053 79.0121 31.728C78.7135 31.44 78.5641 31.088 78.5641 30.672C78.5641 30.2453 78.7135 29.8933 79.0121 29.616C79.3215 29.328 79.7161 29.184 80.1961 29.184C80.6655 29.184 81.0495 29.328 81.3481 29.616C81.6575 29.8933 81.8121 30.2453 81.8121 30.672C81.8121 31.088 81.6575 31.44 81.3481 31.728C81.0495 32.0053 80.6655 32.144 80.1961 32.144ZM81.5561 33.072V42H78.8201V33.072H81.5561ZM86.2749 34.56C86.5949 34.0693 86.9949 33.6853 87.4749 33.408C87.9549 33.12 88.4882 32.976 89.0749 32.976V35.872H88.3229C87.6402 35.872 87.1282 36.0213 86.7869 36.32C86.4455 36.608 86.2749 37.12 86.2749 37.856V42H83.5389V33.072H86.2749V34.56ZM93.1186 34.336C93.3853 33.92 93.7533 33.584 94.2226 33.328C94.692 33.072 95.2413 32.944 95.8706 32.944C96.6066 32.944 97.2733 33.1307 97.8706 33.504C98.468 33.8773 98.9373 34.4107 99.2786 35.104C99.6306 35.7973 99.8066 36.6027 99.8066 37.52C99.8066 38.4373 99.6306 39.248 99.2786 39.952C98.9373 40.6453 98.468 41.184 97.8706 41.568C97.2733 41.9413 96.6066 42.128 95.8706 42.128C95.252 42.128 94.7026 42 94.2226 41.744C93.7533 41.488 93.3853 41.1573 93.1186 40.752V46.256H90.3826V33.072H93.1186V34.336ZM97.0226 37.52C97.0226 36.8373 96.8306 36.304 96.4466 35.92C96.0733 35.5253 95.6093 35.328 95.0546 35.328C94.5106 35.328 94.0466 35.5253 93.6626 35.92C93.2893 36.3147 93.1026 36.8533 93.1026 37.536C93.1026 38.2187 93.2893 38.7573 93.6626 39.152C94.0466 39.5467 94.5106 39.744 95.0546 39.744C95.5986 39.744 96.0626 39.5467 96.4466 39.152C96.8306 38.7467 97.0226 38.2027 97.0226 37.52ZM109.658 37.392C109.658 37.648 109.642 37.9147 109.61 38.192H103.418C103.461 38.7467 103.637 39.1733 103.946 39.472C104.266 39.76 104.655 39.904 105.114 39.904C105.797 39.904 106.271 39.616 106.538 39.04H109.45C109.301 39.6267 109.029 40.1547 108.634 40.624C108.25 41.0933 107.765 41.4613 107.178 41.728C106.591 41.9947 105.935 42.128 105.21 42.128C104.335 42.128 103.557 41.9413 102.874 41.568C102.191 41.1947 101.658 40.6613 101.274 39.968C100.89 39.2747 100.698 38.464 100.698 37.536C100.698 36.608 100.885 35.7973 101.258 35.104C101.642 34.4107 102.175 33.8773 102.858 33.504C103.541 33.1307 104.325 32.944 105.21 32.944C106.074 32.944 106.842 33.1253 107.514 33.488C108.186 33.8507 108.709 34.368 109.082 35.04C109.466 35.712 109.658 36.496 109.658 37.392ZM106.858 36.672C106.858 36.2027 106.698 35.8293 106.378 35.552C106.058 35.2747 105.658 35.136 105.178 35.136C104.719 35.136 104.33 35.2693 104.01 35.536C103.701 35.8027 103.509 36.1813 103.434 36.672H106.858ZM113.837 34.56C114.157 34.0693 114.557 33.6853 115.037 33.408C115.517 33.12 116.051 32.976 116.637 32.976V35.872H115.885C115.203 35.872 114.691 36.0213 114.349 36.32C114.008 36.608 113.837 37.12 113.837 37.856V42H111.101V33.072H113.837V34.56ZM121.577 42.128C120.798 42.128 120.105 41.9947 119.497 41.728C118.889 41.4613 118.409 41.0987 118.057 40.64C117.705 40.1707 117.508 39.648 117.465 39.072H120.169C120.201 39.3813 120.345 39.632 120.601 39.824C120.857 40.016 121.172 40.112 121.545 40.112C121.886 40.112 122.148 40.048 122.329 39.92C122.521 39.7813 122.617 39.6053 122.617 39.392C122.617 39.136 122.484 38.9493 122.217 38.832C121.95 38.704 121.518 38.5653 120.921 38.416C120.281 38.2667 119.748 38.112 119.321 37.952C118.894 37.7813 118.526 37.52 118.217 37.168C117.908 36.8053 117.753 36.32 117.753 35.712C117.753 35.2 117.892 34.736 118.169 34.32C118.457 33.8933 118.873 33.5573 119.417 33.312C119.972 33.0667 120.628 32.944 121.385 32.944C122.505 32.944 123.385 33.2213 124.025 33.776C124.676 34.3307 125.049 35.0667 125.145 35.984H122.617C122.574 35.6747 122.436 35.4293 122.201 35.248C121.977 35.0667 121.678 34.976 121.305 34.976C120.985 34.976 120.74 35.04 120.569 35.168C120.398 35.2853 120.313 35.4507 120.313 35.664C120.313 35.92 120.446 36.112 120.713 36.24C120.99 36.368 121.417 36.496 121.993 36.624C122.654 36.7947 123.193 36.9653 123.609 37.136C124.025 37.296 124.388 37.5627 124.697 37.936C125.017 38.2987 125.182 38.7893 125.193 39.408C125.193 39.9307 125.044 40.4 124.745 40.816C124.457 41.2213 124.036 41.5413 123.481 41.776C122.937 42.0107 122.302 42.128 121.577 42.128ZM130.931 42.128C130.056 42.128 129.267 41.9413 128.563 41.568C127.87 41.1947 127.32 40.6613 126.915 39.968C126.52 39.2747 126.323 38.464 126.323 37.536C126.323 36.6187 126.526 35.8133 126.931 35.12C127.336 34.416 127.891 33.8773 128.595 33.504C129.299 33.1307 130.088 32.944 130.963 32.944C131.838 32.944 132.627 33.1307 133.331 33.504C134.035 33.8773 134.59 34.416 134.995 35.12C135.4 35.8133 135.603 36.6187 135.603 37.536C135.603 38.4533 135.395 39.264 134.979 39.968C134.574 40.6613 134.014 41.1947 133.299 41.568C132.595 41.9413 131.806 42.128 130.931 42.128ZM130.931 39.76C131.454 39.76 131.896 39.568 132.259 39.184C132.632 38.8 132.819 38.2507 132.819 37.536C132.819 36.8213 132.638 36.272 132.275 35.888C131.923 35.504 131.486 35.312 130.963 35.312C130.43 35.312 129.987 35.504 129.635 35.888C129.283 36.2613 129.107 36.8107 129.107 37.536C129.107 38.2507 129.278 38.8 129.619 39.184C129.971 39.568 130.408 39.76 130.931 39.76ZM142.495 32.976C143.54 32.976 144.372 33.3173 144.991 34C145.62 34.672 145.935 35.6 145.935 36.784V42H143.215V37.152C143.215 36.5547 143.06 36.0907 142.751 35.76C142.441 35.4293 142.025 35.264 141.503 35.264C140.98 35.264 140.564 35.4293 140.255 35.76C139.945 36.0907 139.791 36.5547 139.791 37.152V42H137.055V33.072H139.791V34.256C140.068 33.8613 140.441 33.552 140.911 33.328C141.38 33.0933 141.908 32.976 142.495 32.976Z" fill="#312E81"/>
<rect x="31.6784" y="18.4685" width="8.58139" height="36.6419" transform="rotate(46.4807 31.6784 18.4685)" fill="#FDAD57"/>
</svg>
